<?xml version="1.0" encoding="utf-8"?>
<!-- Generator: Adobe Illustrator 22.0.0, SVG Export Plug-In . SVG Version: 6.00 Build 0)  -->
<svg version="1.1" id="Calque_1" xmlns="http://www.w3.org/2000/svg" xmlns:xlink="http://www.w3.org/1999/xlink" x="0px" y="0px"
	 viewBox="0 0 233.8 78.2" style="enable-background:new 0 0 233.8 78.2;" xml:space="preserve">
<style type="text/css">
	.st0{fill:#231F20;}
	.st1{fill:#FFFFFF;}
	.st2{enable-background:new    ;}
	.st3{fill:#E50914;}
	.st4{clip-path:url(#SVGID_2_);}
	.st5{clip-path:url(#SVGID_4_);}
</style>
<path id="path3015_2_" class="st3" d="M77.9,15.8h6v44.3c0,0,1.3-0.1,5.5-0.2V15.8h6.1v-5.1H78L77.9,15.8"/>
<path id="path3017_2_" class="st3" d="M27.5,54.5h-0.4l-6.7-43.8h-8.9v55c0,0,1.8-0.3,5.5-0.7l-0.3-41.8h0.4l6.4,41.2
	c0,0,2.2-0.3,9.6-1V10.7h-5.7L27.5,54.5"/>
<path id="path3021_2_" class="st3" d="M147.7,10.7h-5.5v49.2c0,0,3.7,0.1,12.8,0.5v-5c0,0-1-0.1-7.2-0.3V10.7"/>
<path id="path3023_2_" class="st3" d="M51.3,61.9c0,0,3.3-0.2,12.7-0.8v-5l-7.1,0.5V39H64v-5.1h-7.1v-18h7.2v-5.1H51.4L51.3,61.9"/>
<path id="path3025_2_" class="st3" d="M112,59.5h5.6V38.9h7.1v-5.1h-7.1v-18h7.2v-5.1h-12.7L112,59.5"/>
<g>
	<g>
		<g class="st2">
			<defs>
				<rect id="SVGID_1_" x="168.6" y="9.8" class="st2" width="17.9" height="54.7"/>
			</defs>
			<clipPath id="SVGID_2_">
				<use xlink:href="#SVGID_1_"  style="overflow:visible;"/>
			</clipPath>
			<g class="st4">
				<g>
					<g>
						<g>
							<path class="st3" d="M177.4,60.1c-1,0-1.9-0.3-2.5-1c-0.7-0.6-1-1.5-1-2.5l0.3-38.8c0-1,0.4-1.8,1-2.5c0.7-0.7,1.6-1,2.5-1
								c1.1,0,2,0.3,2.6,0.9c0.7,0.7,1.1,1.6,1.1,2.6l-0.3,38.8c-0.1,1-0.5,1.8-1.1,2.5C179.4,59.8,178.6,60.1,177.4,60.1
								 M178.1,9.8c-0.1,0-0.3,0-0.4,0c-2.4,0-4.4,0.8-6.2,2.4c-1.8,1.6-2.6,3.4-2.6,5.6l-0.3,38.8c0,2.1,0.8,3.9,2.5,5.6
								c1.7,1.5,3.8,2.3,6.2,2.3c2.5,0,4.6-0.7,6.3-2.3c1.9-1.6,2.7-3.4,2.7-5.6l0.3-38.8c0.1-2.3-0.7-4.1-2.5-5.6
								C182.4,10.6,180.6,9.8,178.1,9.8"/>
						</g>
					</g>
				</g>
			</g>
		</g>
	</g>
</g>
<g>
	<g>
		<g class="st2">
			<defs>
				<rect id="SVGID_3_" x="196.4" y="10.8" class="st2" width="16.8" height="57.1"/>
			</defs>
			<clipPath id="SVGID_4_">
				<use xlink:href="#SVGID_3_"  style="overflow:visible;"/>
			</clipPath>
			<g class="st5">
				<g>
					<g>
						<g>
							<path class="st3" d="M213.2,10.8h-4.8L208,59.6c0,1-0.3,1.9-1,2.6c-0.6,0.6-1.4,1-2.4,1c-1,0-1.7-0.4-2.4-1.1
								c-0.6-0.6-1-1.5-1-2.5l0.3-48.8h-4.8l-0.3,48.8c0,2.2,0.8,4.1,2.4,5.9c1.6,1.6,3.4,2.4,5.7,2.4c2.4,0,4.3-0.8,5.9-2.4
								c1.7-1.7,2.5-3.6,2.5-5.9L213.2,10.8"/>
						</g>
					</g>
				</g>
			</g>
		</g>
	</g>
</g>
</svg>
